<svg xmlns="http://www.w3.org/2000/svg" width="1199.129" height="300.825" viewBox="0 0 1199.129 300.825">
  <g transform="translate(-224.344 -239.125)" fill="currentColor">
    <g transform="translate(224.344 239.125)">
      <g>
        <path d="M125.668,240.112h0a72.581,72.581,0,0,1-23.006-3.89,94.124,94.124,0,0,1-18.873-8.857,107.267,107.267,0,0,1-20.2-15.773h0a.038.038,0,0,1-.01-.008L67.7,205.44a.257.257,0,0,0,.031.015,129.888,129.888,0,0,0,18,6.538,159.717,159.717,0,0,0,18.66,4.242,140.957,140.957,0,0,0,22.752,1.911c18.939,0,36.223-4.183,51.365-12.433l4.6,6.144C165.469,230.606,146.145,240.112,125.668,240.112Zm49.205-52.481a15.174,15.174,0,0,1-10.359-3.971,12.848,12.848,0,0,1,0-19.168,15.5,15.5,0,0,1,20.719,0,12.848,12.848,0,0,1,0,19.168A15.167,15.167,0,0,1,174.873,187.631Zm-102.539,0c-8.377,0-15.2-6.081-15.2-13.555s6.818-13.555,15.2-13.555a16.057,16.057,0,0,1,10.74,3.971,12.551,12.551,0,0,1,0,19.168A16.06,16.06,0,0,1,72.334,187.631Zm5.723-45.9a32.085,32.085,0,0,1-10.328-1.7,31.065,31.065,0,0,1-8.91-4.729,29.019,29.019,0,0,1-6.748-7.224,27.241,27.241,0,0,1-3.848-9.182L30.924,18.424H0L.008,0h37.41A12.563,12.563,0,0,1,44.98,2.5a10.945,10.945,0,0,1,4.137,6.373l4.895,24.229H203.217a12.291,12.291,0,0,1,9.2,4,10.438,10.438,0,0,1,2.531,9.111l-14.965,72.605a27.356,27.356,0,0,1-3.859,9.228,28.967,28.967,0,0,1-6.777,7.248,31.211,31.211,0,0,1-8.98,4.738,32.738,32.738,0,0,1-10.459,1.7c-.2,0-.387,0-.588-.005H78.641C78.449,141.736,78.25,141.736,78.057,141.736ZM193.385,52.909h0l-135.6.019,10.869,61.653a6.213,6.213,0,0,0,2.342,3.641,7.124,7.124,0,0,0,4.291,1.419h.131l97.768-.019h.152a6.726,6.726,0,0,0,6.846-5.041L193.389,52.91Z" transform="translate(0 0)" />
      </g>
    </g>
    <path d="M220.518,267.868H188.227V3.852h28.885l3.414,34.871.051.538h3.205l.17-.313a71.884,71.884,0,0,1,12.227-16.555A70.851,70.851,0,0,1,252.49,10.179a80,80,0,0,1,19.9-7.58A99.514,99.514,0,0,1,295.41,0c12.859,0,24.6,2.308,34.889,6.858a69.852,69.852,0,0,1,26.039,19.913c7.152,8.765,12.648,19.555,16.334,32.071,3.758,12.743,5.662,27.323,5.662,43.333,0,16.193-1.9,30.9-5.662,43.722-3.693,12.6-9.189,23.417-16.334,32.165A69.522,69.522,0,0,1,330.3,197.925c-10.266,4.522-22,6.815-34.895,6.815a101.836,101.836,0,0,1-23.617-2.656,79.464,79.464,0,0,1-20.025-7.667,67.849,67.849,0,0,1-27.812-28.62l-.168-.319h-3.27Zm65.65-241.347a76.039,76.039,0,0,0-26.777,4.591A59.7,59.7,0,0,0,238.65,44.06a57.23,57.23,0,0,0-13.391,20.02,68.977,68.977,0,0,0-4.742,25.782v25.018A68.52,68.52,0,0,0,225.26,140.6a56.735,56.735,0,0,0,13.391,19.894A59.585,59.585,0,0,0,259.4,173.3a76.919,76.919,0,0,0,26.77,4.535c17.721,0,32.619-5.164,43.084-14.933,10.484-9.782,16.025-23.727,16.025-40.327V82.163c0-16.625-5.539-30.635-16.018-40.514C318.768,31.752,303.867,26.521,286.168,26.521ZM813.123,207.434c-14.346,0-27.553-2.449-39.25-7.278a81.139,81.139,0,0,1-29.59-20.815,92.683,92.683,0,0,1-18.717-32.885c-4.332-12.969-6.531-27.608-6.531-43.509,0-15.868,2.2-30.426,6.525-43.271a90,90,0,0,1,18.674-32.347A80.172,80.172,0,0,1,773.711,7.041C785.316,2.369,798.449,0,812.74,0a104.883,104.883,0,0,1,36.965,6.245,76.843,76.843,0,0,1,27.906,17.877A78.153,78.153,0,0,1,895.27,52.385a108.659,108.659,0,0,1,6.178,37.477,171.369,171.369,0,0,1-1.086,20.188H752.1l0,12.146a65.8,65.8,0,0,0,4.406,24.36,53.083,53.083,0,0,0,12.516,18.792,55.624,55.624,0,0,0,19.518,12.077,73.161,73.161,0,0,0,25.357,4.259c13.848,0,26.477-3.546,36.518-10.254a49.172,49.172,0,0,0,20.127-27.085h31.914c-4.311,19.228-14.252,34.234-30.393,45.877a92.6,92.6,0,0,1-12.91,7.529,93.781,93.781,0,0,1-14.1,5.375,104.528,104.528,0,0,1-15.326,3.232A124.678,124.678,0,0,1,813.123,207.434ZM812.74,25.75a73.857,73.857,0,0,0-24.521,3.965,56.338,56.338,0,0,0-19.18,11.2A49.878,49.878,0,0,0,756.547,58.26,55.846,55.846,0,0,0,752.1,80.622V86.61H869.535l0-8.3a55.422,55.422,0,0,0-4.117-21.5A47.378,47.378,0,0,0,853.8,40.195a51.919,51.919,0,0,0-17.953-10.673A68.611,68.611,0,0,0,812.74,25.75ZM602.188,207.434c-14.346,0-27.553-2.449-39.25-7.278a81.053,81.053,0,0,1-29.59-20.815,92.683,92.683,0,0,1-18.717-32.885c-4.332-12.969-6.531-27.608-6.531-43.509,0-15.882,2.2-30.44,6.525-43.271A90,90,0,0,1,533.3,27.329,80.2,80.2,0,0,1,562.77,7.041C574.381,2.369,587.514,0,601.8,0A104.883,104.883,0,0,1,638.77,6.245a76.845,76.845,0,0,1,27.9,17.877,78.078,78.078,0,0,1,17.664,28.263,108.613,108.613,0,0,1,6.178,37.477,171.4,171.4,0,0,1-1.084,20.188H541.16l0,12.146a65.8,65.8,0,0,0,4.406,24.36,53,53,0,0,0,12.516,18.792,55.615,55.615,0,0,0,19.52,12.077,73.094,73.094,0,0,0,25.355,4.259c13.848,0,26.477-3.546,36.518-10.254A49.146,49.146,0,0,0,659.6,144.344h31.914c-4.311,19.228-14.252,34.234-30.393,45.877a91.839,91.839,0,0,1-27.012,12.9,104.621,104.621,0,0,1-15.326,3.232A124.678,124.678,0,0,1,602.188,207.434ZM601.8,25.75a73.849,73.849,0,0,0-24.521,3.965,56.338,56.338,0,0,0-19.18,11.2A49.755,49.755,0,0,0,545.611,58.26a55.846,55.846,0,0,0-4.449,22.362V86.61H658.6l0-8.3a55.377,55.377,0,0,0-4.117-21.5,47.378,47.378,0,0,0-11.619-16.612,51.906,51.906,0,0,0-17.953-10.673A68.619,68.619,0,0,0,601.8,25.75ZM81.393,207.434c-24.617,0-45.252-6.1-59.678-17.626A56.742,56.742,0,0,1,5.605,169.613,60.958,60.958,0,0,1,0,143.962H31.914c.158,11.487,4.887,21.176,13.678,28.021s21.18,10.47,35.8,10.47a73.968,73.968,0,0,0,19.047-2.274,42.731,42.731,0,0,0,14.363-6.646,29.5,29.5,0,0,0,9.076-10.736,32.54,32.54,0,0,0,3.146-14.432,30.161,30.161,0,0,0-1.7-10.379,23.257,23.257,0,0,0-5.111-8.218,28.879,28.879,0,0,0-8.469-5.976,49.488,49.488,0,0,0-11.77-3.727l-43.113-8.086a100.8,100.8,0,0,1-23.322-6.953A56.1,56.1,0,0,1,17,93.958,42.633,42.633,0,0,1,7.139,78.8,54.181,54.181,0,0,1,3.854,59.45,57.6,57.6,0,0,1,9.145,34.57,51.835,51.835,0,0,1,24.215,15.9C37.465,5.5,56.438,0,79.08,0A110.546,110.546,0,0,1,111.02,4.34a70.231,70.231,0,0,1,23.936,12.271c13.072,10.551,20.162,25.557,20.5,43.4H123.535c-1-23.5-15.959-35.416-44.455-35.416a70.987,70.987,0,0,0-18.3,2.18A39.769,39.769,0,0,0,47.3,33.035a27.234,27.234,0,0,0-8.334,9.922,29.573,29.573,0,0,0-2.83,13.029,28.154,28.154,0,0,0,3.4,14.106,23.2,23.2,0,0,0,9.619,9.133l.045.019c7.922,3.4,11.479,4.623,19.758,6.2l39.648,7.31A93.816,93.816,0,0,1,131.49,99.57a54.132,54.132,0,0,1,16.3,11.206,43.876,43.876,0,0,1,9.783,15.591,58.259,58.259,0,0,1,3.273,20.075,58.013,58.013,0,0,1-5.57,25.6A53.43,53.43,0,0,1,139.395,191.2C125.43,201.82,105.373,207.434,81.393,207.434Zm357.762-3.852H406.861V32.891a39.827,39.827,0,0,1,1.848-12.722,22.8,22.8,0,0,1,5.525-9.032A23.415,23.415,0,0,1,423.5,5.693a42.561,42.561,0,0,1,13.174-1.841h69.07V30.367H439.158Z" transform="translate(521.02 272.083)" />
  </g>
</svg>
