<svg xmlns="http://www.w3.org/2000/svg" width="215.156" height="240.112" viewBox="0 0 215.156 240.112">
  <g fill-rule="nonzero" fill="currentColor">
    <path d="M125.668,240.112h0a72.581,72.581,0,0,1-23.006-3.89,94.124,94.124,0,0,1-18.873-8.857,107.267,107.267,0,0,1-20.2-15.773h0a.038.038,0,0,1-.01-.008L67.7,205.44a.257.257,0,0,0,.031.015,129.888,129.888,0,0,0,18,6.538,159.717,159.717,0,0,0,18.66,4.242,140.957,140.957,0,0,0,22.752,1.911c18.939,0,36.223-4.183,51.365-12.433l4.6,6.144C165.469,230.606,146.145,240.112,125.668,240.112Zm49.205-52.481a15.174,15.174,0,0,1-10.359-3.971,12.848,12.848,0,0,1,0-19.168,15.5,15.5,0,0,1,20.719,0,12.848,12.848,0,0,1,0,19.168A15.167,15.167,0,0,1,174.873,187.631Zm-102.539,0c-8.377,0-15.2-6.081-15.2-13.555s6.818-13.555,15.2-13.555a16.057,16.057,0,0,1,10.74,3.971,12.551,12.551,0,0,1,0,19.168A16.06,16.06,0,0,1,72.334,187.631Zm5.723-45.9a32.085,32.085,0,0,1-10.328-1.7,31.065,31.065,0,0,1-8.91-4.729,29.019,29.019,0,0,1-6.748-7.224,27.241,27.241,0,0,1-3.848-9.182L30.924,18.424H0L.008,0h37.41A12.563,12.563,0,0,1,44.98,2.5a10.945,10.945,0,0,1,4.137,6.373l4.895,24.229H203.217a12.291,12.291,0,0,1,9.2,4,10.438,10.438,0,0,1,2.531,9.111l-14.965,72.605a27.356,27.356,0,0,1-3.859,9.228,28.967,28.967,0,0,1-6.777,7.248,31.211,31.211,0,0,1-8.98,4.738,32.738,32.738,0,0,1-10.459,1.7c-.2,0-.387,0-.588-.005H78.641C78.449,141.736,78.25,141.736,78.057,141.736ZM193.385,52.909h0l-135.6.019,10.869,61.653a6.213,6.213,0,0,0,2.342,3.641,7.124,7.124,0,0,0,4.291,1.419h.131l97.768-.019h.152a6.726,6.726,0,0,0,6.846-5.041L193.389,52.91Z" />
  </g>
</svg>
